<svg xmlns="http://www.w3.org/2000/svg" width="32" height="32" viewBox="0 0 32 32">
  <g id="グループ_333" data-name="グループ 333" transform="translate(-3531 296)">
    <rect id="長方形_272" data-name="長方形 272" width="32" height="32" transform="translate(3531 -296)" fill="none"/>
    <path id="play_circle_24dp_1F1F1F_FILL0_wght400_GRAD0_opsz24" d="M92-856.8l11.2-7.2L92-871.2Zm4,8.8a15.58,15.58,0,0,1-6.24-1.26,16.157,16.157,0,0,1-5.08-3.42,16.157,16.157,0,0,1-3.42-5.08A15.58,15.58,0,0,1,80-864a15.58,15.58,0,0,1,1.26-6.24,16.157,16.157,0,0,1,3.42-5.08,16.157,16.157,0,0,1,5.08-3.42A15.581,15.581,0,0,1,96-880a15.581,15.581,0,0,1,6.24,1.26,16.157,16.157,0,0,1,5.08,3.42,16.157,16.157,0,0,1,3.42,5.08A15.58,15.58,0,0,1,112-864a15.58,15.58,0,0,1-1.26,6.24,16.157,16.157,0,0,1-3.42,5.08,16.157,16.157,0,0,1-5.08,3.42A15.58,15.58,0,0,1,96-848Zm0-3.2a12.354,12.354,0,0,0,9.08-3.72A12.354,12.354,0,0,0,108.8-864a12.354,12.354,0,0,0-3.72-9.08A12.353,12.353,0,0,0,96-876.8a12.353,12.353,0,0,0-9.08,3.72A12.354,12.354,0,0,0,83.2-864a12.354,12.354,0,0,0,3.72,9.08A12.354,12.354,0,0,0,96-851.2ZM96-864Z" transform="translate(3451 584)" fill="#424258"/>
  </g>
</svg>
